<svg xmlns="http://www.w3.org/2000/svg" xmlns:xlink="http://www.w3.org/1999/xlink" viewBox="0 0 64 64" version="1.1">
<g id="surface1">
<path style=" " d="M 7 8 C 5.347656 8 4 9.347656 4 11 L 4 47 C 4 48.652344 5.347656 50 7 50 L 37.34375 50 C 38.296875 52.039063 41.789063 58.199219 49.78125 59.976563 C 49.855469 59.992188 49.929688 60 50 60 C 50.316406 60 50.621094 59.847656 50.8125 59.582031 C 51.046875 59.261719 51.0625 58.828125 50.859375 58.484375 C 48.816406 55.085938 48.234375 51.648438 48.066406 50 L 57 50 C 58.652344 50 60 48.652344 60 47 L 60 11 C 60 9.347656 58.652344 8 57 8 Z M 7 10 L 57 10 C 57.550781 10 58 10.449219 58 11 L 58 47 C 58 47.550781 57.550781 48 57 48 L 47 48 C 46.445313 48 46 48.449219 46 49 C 46 49.1875 46.027344 53.003906 48.015625 57.363281 C 41.359375 54.839844 38.960938 48.714844 38.9375 48.648438 C 38.789063 48.257813 38.417969 48 38 48 L 7 48 C 6.449219 48 6 47.550781 6 47 L 6 11 C 6 10.449219 6.449219 10 7 10 Z M 17 24 C 16.445313 24 16 24.449219 16 25 C 16 25.550781 16.445313 26 17 26 L 39 26 C 39.554688 26 40 25.550781 40 25 C 40 24.449219 39.554688 24 39 24 Z M 43 24 C 42.445313 24 42 24.449219 42 25 C 42 25.550781 42.445313 26 43 26 L 47 26 C 47.554688 26 48 25.550781 48 25 C 48 24.449219 47.554688 24 47 24 Z M 17 30 C 16.445313 30 16 30.449219 16 31 C 16 31.550781 16.445313 32 17 32 L 43 32 C 43.554688 32 44 31.550781 44 31 C 44 30.449219 43.554688 30 43 30 Z M 9 42 C 8.445313 42 8 42.449219 8 43 L 8 45 C 8 45.550781 8.445313 46 9 46 C 9.554688 46 10 45.550781 10 45 L 10 43 C 10 42.449219 9.554688 42 9 42 Z M 14 42 C 13.445313 42 13 42.449219 13 43 L 13 45 C 13 45.550781 13.445313 46 14 46 C 14.554688 46 15 45.550781 15 45 L 15 43 C 15 42.449219 14.554688 42 14 42 Z M 19 42 C 18.445313 42 18 42.449219 18 43 L 18 45 C 18 45.550781 18.445313 46 19 46 C 19.554688 46 20 45.550781 20 45 L 20 43 C 20 42.449219 19.554688 42 19 42 Z M 24 42 C 23.445313 42 23 42.449219 23 43 L 23 45 C 23 45.550781 23.445313 46 24 46 C 24.554688 46 25 45.550781 25 45 L 25 43 C 25 42.449219 24.554688 42 24 42 Z M 29 42 C 28.445313 42 28 42.449219 28 43 L 28 45 C 28 45.550781 28.445313 46 29 46 C 29.554688 46 30 45.550781 30 45 L 30 43 C 30 42.449219 29.554688 42 29 42 Z M 34 42 C 33.445313 42 33 42.449219 33 43 L 33 45 C 33 45.550781 33.445313 46 34 46 C 34.554688 46 35 45.550781 35 45 L 35 43 C 35 42.449219 34.554688 42 34 42 Z M 39 42 C 38.445313 42 38 42.449219 38 43 L 38 45 C 38 45.550781 38.445313 46 39 46 C 39.554688 46 40 45.550781 40 45 L 40 43 C 40 42.449219 39.554688 42 39 42 Z M 44 42 C 43.445313 42 43 42.449219 43 43 L 43 45 C 43 45.550781 43.445313 46 44 46 C 44.554688 46 45 45.550781 45 45 L 45 43 C 45 42.449219 44.554688 42 44 42 Z M 49 42 C 48.445313 42 48 42.449219 48 43 L 48 45 C 48 45.550781 48.445313 46 49 46 C 49.554688 46 50 45.550781 50 45 L 50 43 C 50 42.449219 49.554688 42 49 42 Z M 54 42 C 53.445313 42 53 42.449219 53 43 L 53 45 C 53 45.550781 53.445313 46 54 46 C 54.554688 46 55 45.550781 55 45 L 55 43 C 55 42.449219 54.554688 42 54 42 Z "></path>
</g>
</svg>