<svg xmlns="http://www.w3.org/2000/svg" xmlns:xlink="http://www.w3.org/1999/xlink" viewBox="0 0 50 50" version="1.1">
<g id="surface1">
<path style=" " d="M 27 6 C 22.730469 6 19.453125 7.757813 17.632813 10.34375 C 17.210938 10.941406 16.871094 11.585938 16.613281 12.253906 L 16 11 L 15.375 11 C 11.890625 11 9.308594 12.410156 7.953125 14.503906 C 6.714844 16.417969 6.636719 18.8125 7.40625 21.050781 C 7.074219 21.507813 6.828125 22.078125 6.921875 22.878906 C 7.027344 23.78125 7.265625 24.449219 7.640625 24.941406 C 7.804688 25.160156 8.046875 25.167969 8.253906 25.300781 C 8.386719 26.03125 8.582031 26.761719 8.878906 27.367188 C 9.058594 27.734375 9.25 28.0625 9.453125 28.347656 C 9.519531 28.4375 9.632813 28.5 9.695313 28.578125 C 9.703125 29.375 9.710938 30.066406 9.648438 30.890625 C 9.464844 31.339844 9.015625 31.757813 8.179688 32.179688 C 7.3125 32.617188 6.148438 33.019531 4.96875 33.539063 C 3.789063 34.058594 2.570313 34.695313 1.609375 35.71875 C 0.644531 36.746094 0 38.1875 0 40 L 0 41 L 7.234375 41 C 7.089844 41.621094 7 42.285156 7 43 L 7 44 L 43 44 L 43 43 C 43 42.285156 42.914063 41.621094 42.765625 41 L 50.0625 41 L 50 39.941406 C 49.890625 38.125 49.164063 36.703125 48.15625 35.691406 C 47.148438 34.683594 45.902344 34.050781 44.703125 33.542969 C 43.5 33.03125 42.332031 32.636719 41.460938 32.203125 C 40.625 31.789063 40.183594 31.382813 40 30.941406 L 40 28.6875 C 40.070313 28.609375 40.171875 28.554688 40.246094 28.46875 C 40.472656 28.195313 40.703125 27.871094 40.921875 27.503906 C 41.269531 26.917969 41.503906 26.183594 41.671875 25.441406 C 41.839844 25.332031 41.917969 25.328125 42.125 25.101563 C 42.527344 24.664063 42.929688 23.945313 43.046875 22.96875 C 43.144531 22.125 42.863281 21.558594 42.59375 21.171875 C 42.796875 20.675781 43.046875 20.214844 43.105469 19.613281 C 43.191406 18.6875 43.136719 17.652344 42.875 16.636719 C 42.609375 15.621094 42.140625 14.617188 41.34375 13.832031 C 40.699219 13.199219 39.785156 12.824219 38.761719 12.671875 L 38.015625 11 L 37.367188 11 C 35.914063 11 34.441406 11.1875 33.0625 11.636719 C 32.726563 10.882813 32.292969 10.175781 31.714844 9.578125 C 30.953125 8.796875 29.886719 8.3125 28.691406 8.144531 L 27.617188 6 Z M 26.410156 8.0625 L 27.382813 10 L 28 10 C 28.984375 10 29.675781 10.355469 30.277344 10.972656 C 30.878906 11.589844 31.347656 12.5 31.628906 13.503906 C 31.914063 14.507813 32.019531 15.59375 31.964844 16.5 C 31.90625 17.40625 31.644531 18.136719 31.480469 18.347656 L 30.929688 19.058594 L 31.570313 19.679688 C 31.570313 19.679688 32.03125 20.199219 31.96875 20.722656 C 31.875 21.523438 31.589844 21.9375 31.355469 22.191406 C 31.121094 22.445313 31.007813 22.476563 31.007813 22.476563 L 30.457031 22.703125 L 30.394531 23.296875 C 30.320313 24.007813 29.941406 24.992188 29.496094 25.78125 C 29.273438 26.175781 29.039063 26.527344 28.839844 26.777344 C 28.640625 27.023438 28.421875 27.175781 28.53125 27.117188 L 28 27.398438 L 28 30.558594 C 27.808594 30.722656 27.535156 30.941406 27.195313 31.167969 C 26.53125 31.609375 25.667969 32 25 32 C 24.332031 32 23.46875 31.609375 22.804688 31.167969 C 22.464844 30.941406 22.191406 30.722656 22 30.558594 L 22 27.398438 L 21.46875 27.117188 C 21.578125 27.175781 21.355469 27.023438 21.15625 26.777344 C 20.960938 26.527344 20.726563 26.175781 20.503906 25.78125 C 20.058594 24.992188 19.679688 24.007813 19.605469 23.296875 L 19.542969 22.703125 L 18.992188 22.476563 C 18.992188 22.476563 18.878906 22.445313 18.644531 22.191406 C 18.410156 21.9375 18.125 21.523438 18.03125 20.722656 L 18.03125 20.71875 C 17.96875 20.195313 18.425781 19.679688 18.425781 19.679688 L 18.929688 19.195313 L 18.644531 18.558594 C 17.558594 16.113281 17.84375 13.515625 19.265625 11.496094 C 20.609375 9.589844 23.015625 8.214844 26.410156 8.0625 Z M 36.765625 13.105469 L 37.402344 14.535156 L 38.050781 14.535156 C 38.933594 14.535156 39.484375 14.808594 39.941406 15.261719 C 40.402344 15.710938 40.742188 16.378906 40.9375 17.136719 C 41.132813 17.894531 41.179688 18.726563 41.113281 19.421875 C 41.046875 20.113281 40.820313 20.675781 40.730469 20.792969 L 40.195313 21.496094 L 40.824219 22.109375 C 40.824219 22.109375 41.09375 22.445313 41.058594 22.734375 C 40.992188 23.3125 40.800781 23.585938 40.652344 23.75 C 40.5 23.914063 40.46875 23.910156 40.46875 23.910156 L 39.925781 24.140625 L 39.863281 24.730469 C 39.8125 25.222656 39.53125 25.925781 39.203125 26.484375 C 39.035156 26.761719 38.859375 27.007813 38.714844 27.183594 C 38.570313 27.355469 38.410156 27.453125 38.527344 27.390625 L 38 27.671875 L 38 30.199219 C 37.648438 30.480469 36.886719 31 36 31 L 35 31 L 35 33.902344 C 33.964844 33.460938 32.972656 33.039063 32.15625 32.617188 C 31 32.015625 30.285156 31.398438 30 30.738281 L 30 28.394531 C 30.121094 28.265625 30.285156 28.171875 30.40625 28.019531 C 30.6875 27.667969 30.96875 27.242188 31.238281 26.765625 C 31.695313 25.953125 32.015625 24.976563 32.207031 24 C 32.414063 23.878906 32.53125 23.859375 32.816406 23.554688 C 33.308594 23.027344 33.808594 22.167969 33.953125 20.957031 C 34.070313 19.976563 33.738281 19.308594 33.417969 18.839844 C 33.714844 18.183594 33.90625 17.457031 33.957031 16.625 C 34.019531 15.652344 33.929688 14.589844 33.691406 13.539063 C 34.632813 13.261719 35.695313 13.152344 36.765625 13.105469 Z M 14.808594 13.113281 L 15.4375 14.402344 L 16.0625 14.402344 C 16.074219 14.402344 16.082031 14.402344 16.09375 14.402344 C 15.929688 15.835938 16.105469 17.328125 16.636719 18.765625 C 16.300781 19.21875 15.921875 19.898438 16.046875 20.957031 C 16.191406 22.167969 16.691406 23.027344 17.183594 23.554688 C 17.464844 23.859375 17.582031 23.878906 17.789063 24 C 17.980469 24.976563 18.304688 25.953125 18.761719 26.765625 C 19.027344 27.242188 19.3125 27.667969 19.59375 28.019531 C 19.714844 28.171875 19.878906 28.265625 20 28.394531 L 20 30.738281 C 19.714844 31.402344 18.996094 32.019531 17.839844 32.625 C 17.027344 33.046875 16.03125 33.46875 15 33.910156 L 15 31 L 14 31 C 12.753906 31 11.992188 30.46875 11.6875 30.199219 C 11.707031 29.519531 11.703125 28.886719 11.703125 28.214844 L 11.703125 27.613281 L 11.179688 27.332031 C 11.328125 27.414063 11.191406 27.339844 11.078125 27.175781 C 10.960938 27.015625 10.8125 26.769531 10.675781 26.488281 C 10.40625 25.929688 10.167969 25.214844 10.109375 24.65625 L 10.023438 23.828125 L 9.261719 23.765625 C 9.253906 23.757813 9.257813 23.761719 9.234375 23.730469 C 9.152344 23.625 8.988281 23.308594 8.910156 22.648438 C 8.867188 22.292969 9 22.144531 9.019531 22.125 L 9.707031 21.691406 L 9.363281 20.90625 C 8.546875 19.039063 8.671875 17.078125 9.632813 15.59375 C 10.519531 14.222656 12.242188 13.269531 14.808594 13.113281 Z M 11.214844 32.246094 C 11.742188 32.542969 12.429688 32.832031 13.269531 32.941406 L 13.109375 34.761719 C 12.625 34.992188 12.148438 35.25 11.675781 35.523438 L 10.417969 33.105469 C 10.71875 32.855469 10.992188 32.574219 11.214844 32.246094 Z M 38.449219 32.320313 C 38.601563 32.546875 38.78125 32.75 38.980469 32.933594 L 38.136719 35.402344 C 37.722656 35.167969 37.308594 34.949219 36.890625 34.75 L 36.730469 32.9375 C 37.402344 32.828125 37.984375 32.582031 38.449219 32.320313 Z M 21.265625 32.503906 C 21.417969 32.617188 21.519531 32.714844 21.695313 32.832031 C 22.273438 33.21875 23.003906 33.613281 23.832031 33.832031 L 23.09375 42 L 22.683594 42 C 22.164063 40.667969 20.605469 36.429688 20.46875 33.289063 C 20.761719 33.050781 21.035156 32.796875 21.265625 32.503906 Z M 28.734375 32.503906 C 28.964844 32.796875 29.238281 33.050781 29.53125 33.289063 C 29.394531 36.429688 27.835938 40.667969 27.316406 42 L 26.90625 42 L 26.167969 33.832031 C 26.996094 33.613281 27.726563 33.21875 28.304688 32.832031 C 28.480469 32.714844 28.582031 32.617188 28.734375 32.503906 Z M 40.707031 34.054688 C 41.734375 34.546875 42.859375 34.933594 43.917969 35.382813 C 45.019531 35.851563 46.027344 36.394531 46.738281 37.109375 C 47.234375 37.601563 47.550781 38.242188 47.761719 39 L 41.992188 39 C 41.6875 38.457031 41.332031 37.957031 40.921875 37.519531 C 40.59375 37.160156 40.234375 36.839844 39.859375 36.542969 Z M 8.695313 34.132813 L 10.011719 36.660156 C 9.683594 36.929688 9.367188 37.214844 9.078125 37.53125 C 8.671875 37.96875 8.316406 38.460938 8.015625 39 C 8.007813 39 8.003906 39 8 39 L 2.167969 39 C 2.328125 38.226563 2.601563 37.585938 3.066406 37.089844 C 3.726563 36.386719 4.691406 35.84375 5.773438 35.371094 C 6.726563 34.949219 7.742188 34.578125 8.695313 34.132813 Z M 31.457031 34.5 C 32.785156 35.167969 34.269531 35.722656 35.671875 36.375 C 37.148438 37.0625 38.507813 37.851563 39.457031 38.875 C 40.207031 39.6875 40.636719 40.722656 40.828125 42 L 29.480469 42 C 30.125 40.304688 31.140625 37.324219 31.457031 34.5 Z M 18.542969 34.503906 C 18.859375 37.324219 19.875 40.304688 20.519531 42 L 9.175781 42 C 9.363281 40.730469 9.792969 39.699219 10.542969 38.890625 C 11.496094 37.863281 12.855469 37.074219 14.332031 36.386719 C 15.730469 35.734375 17.214844 35.171875 18.542969 34.503906 Z "></path>
</g>
</svg>