<?xml version="1.0" standalone="no"?>
<!DOCTYPE svg PUBLIC "-//W3C//DTD SVG 20010904//EN"
 "http://www.w3.org/TR/2001/REC-SVG-20010904/DTD/svg10.dtd">
<svg version="1.0" xmlns="http://www.w3.org/2000/svg"
 width="91.000000pt" height="91.000000pt" viewBox="0 0 91.000000 91.000000"
 preserveAspectRatio="xMidYMid meet">
<metadata>
Created by potrace 1.11, written by Peter Selinger 2001-2013
</metadata>
<g transform="translate(0.000000,91.000000) scale(0.100000,-0.100000)"
fill="#000000" stroke="none">
<path d="M385 743 c-34 -18 -85 -68 -85 -83 0 -5 -6 -9 -12 -8 -7 2 -12 -3
-10 -10 1 -8 -1 -11 -6 -8 -11 6 -63 -49 -55 -58 4 -3 -1 -6 -10 -6 -9 0 -17
-7 -17 -17 0 -9 -3 -14 -6 -10 -8 7 -33 -15 -28 -25 2 -4 -5 -9 -16 -13 -11
-4 -18 -11 -15 -16 4 -5 -1 -9 -9 -9 -9 0 -16 -7 -16 -17 0 -9 -3 -14 -6 -10
-8 8 -34 -18 -34 -34 0 -7 -3 -9 -7 -6 -7 7 -35 -29 -41 -53 -9 -31 -3 -115 7
-118 6 -2 11 -8 11 -14 0 -18 54 -58 88 -64 70 -13 95 0 218 121 l115 115 76
-75 c41 -41 80 -75 86 -75 6 0 8 -3 4 -6 -9 -9 70 -73 98 -80 83 -21 165 32
184 118 15 65 -3 94 -140 231 -71 71 -129 134 -129 140 0 6 -3 8 -6 4 -3 -3
-18 8 -32 24 -61 73 -142 97 -207 62z"/>
</g>
</svg>
